<svg width="47" height="50" viewBox="0 0 47 50" fill="none" xmlns="http://www.w3.org/2000/svg">
<path d="M21.823 0.000676984C21.4923 -0.00874865 21.1663 0.0804317 20.8864 0.256867C20.6066 0.433302 20.3856 0.689012 20.2515 0.99145C20.1174 1.29389 20.0764 1.62938 20.1336 1.95521C20.1908 2.28105 20.3437 2.58249 20.5727 2.82118C23.5324 5.90691 25.4255 9.8598 25.9744 14.1001C26.5233 18.3404 25.699 22.6451 23.6225 26.3827C21.546 30.1203 18.3265 33.0942 14.4363 34.8683C10.546 36.6424 6.18965 37.1233 2.00609 36.2405C1.68288 36.1733 1.34701 36.2036 1.04105 36.3276C0.735099 36.4515 0.472833 36.6635 0.287502 36.9367C0.102171 37.2099 0.00212074 37.5319 3.33414e-05 37.862C-0.00205405 38.1921 0.0939153 38.5154 0.275777 38.7909C2.64562 42.3734 5.89839 45.285 9.72053 47.245C13.5427 49.2051 17.8053 50.1474 22.0975 49.9813C26.3897 49.8151 30.5667 48.5461 34.2259 46.2964C37.885 44.0468 40.903 40.8925 42.9888 37.1375C45.0746 33.3825 46.158 29.1535 46.1344 24.8582C46.1108 20.5629 44.981 16.346 42.8541 12.6142C40.7272 8.88235 37.6748 5.76136 33.9911 3.55206C30.3074 1.34276 26.1167 0.119668 21.823 0.000676984Z" fill="black"/>
</svg>
